<svg version="1.1" id="Layer_1" xmlns="http://www.w3.org/2000/svg" xmlns:xlink="http://www.w3.org/1999/xlink" x="0px" y="0px"
	 width="100%" viewBox="0 0 562 288" enable-background="new 0 0 562 288" xml:space="preserve">
<path fill="#FFFFFF" opacity="1.000000" stroke="none" 
	d="
M433.000000,289.000000 
	C288.666718,289.000000 144.833420,289.000000 1.000097,289.000000 
	C1.000064,193.000076 1.000064,97.000145 1.000032,1.000161 
	C188.333206,1.000107 375.666412,1.000107 562.999756,1.000054 
	C562.999817,96.999847 562.999817,192.999695 562.999878,288.999756 
	C519.833313,289.000000 476.666656,289.000000 433.000000,289.000000 
M281.111694,212.414932 
	C281.111694,214.498505 281.111694,216.582077 281.111694,218.591248 
	C220.602768,218.591248 160.884979,218.591248 101.197281,218.591248 
	C101.197281,167.935623 101.197281,117.681267 101.197281,67.226936 
	C161.214935,67.226936 220.923264,67.226936 281.258423,67.226936 
	C281.258423,77.940872 281.258423,88.330338 281.258423,99.002838 
	C283.335358,98.901527 284.771179,98.831490 286.424866,98.750824 
	C286.424866,86.204597 286.424866,73.969444 286.424866,61.173752 
	C280.570984,61.173752 274.994110,61.173752 268.860168,61.173752 
	C268.860168,55.220238 268.860168,49.805004 268.860168,44.308075 
	C204.935165,44.308075 141.594620,44.308075 78.346840,44.308075 
	C78.346840,98.653732 78.346840,152.557693 78.346840,207.066315 
	C84.092743,207.066315 89.495377,207.066315 95.522141,207.066315 
	C95.522141,213.053574 95.522141,218.443619 95.522141,223.719528 
	C159.547562,223.719528 222.925598,223.719528 286.461487,223.719528 
	C286.461487,211.370071 286.461487,199.434906 286.461487,187.213684 
	C284.662384,187.213684 283.123535,187.213684 281.111877,187.213684 
	C281.111877,195.499390 281.111877,203.465652 281.111694,212.414932 
M289.867157,150.498688 
	C290.243866,157.472305 290.614258,164.446259 291.000153,171.419373 
	C291.177063,174.616119 292.553497,176.468796 295.985474,177.206085 
	C303.437866,178.807098 310.467590,177.948257 317.426666,175.001953 
	C325.162140,171.726913 329.990387,166.221451 330.589691,157.746262 
	C331.128296,150.129944 327.474487,144.736328 321.533661,142.247910 
	C324.558136,137.260971 328.525421,132.711548 330.276978,127.427628 
	C334.240723,115.470230 326.864532,105.818375 314.332123,106.048355 
	C309.782593,106.131844 305.089386,107.227547 300.760956,108.725822 
	C291.027313,112.095070 290.160370,113.598396 290.014465,124.011726 
	C289.895477,132.506622 289.909119,141.003372 289.867157,150.498688 
M123.924660,174.557465 
	C128.408691,176.862518 132.670853,179.976151 137.429123,181.281799 
	C144.447693,183.207642 155.312836,177.301498 157.703873,170.736847 
	C158.497589,168.557663 158.383377,165.191788 157.164413,163.405716 
	C156.184891,161.970490 152.877319,161.541412 150.665207,161.677856 
	C147.907593,161.847977 145.235931,163.149551 142.488327,163.798172 
	C136.711594,165.161896 132.679245,163.239044 132.477280,157.407959 
	C132.176178,148.713715 133.079025,139.929245 134.119766,131.261230 
	C134.528763,127.854698 136.867905,124.020737 141.013687,125.027573 
	C142.493866,125.387047 143.465240,129.715744 143.829514,132.348816 
	C144.351929,136.125183 145.175262,139.225281 149.502594,139.979980 
	C154.237061,140.805664 157.846970,138.755920 158.557083,134.312714 
	C159.349457,129.354782 159.508789,123.996498 158.506714,119.106949 
	C155.481750,104.346817 141.156433,100.232056 130.020172,110.532745 
	C123.268410,116.777885 119.558876,124.768181 117.638222,133.459839 
	C114.513145,147.601974 114.189522,161.555573 123.924660,174.557465 
M282.973297,147.581879 
	C282.580902,143.784653 282.583923,139.893707 281.711060,136.210342 
	C280.062592,129.254349 275.240814,126.342255 268.242065,128.029358 
	C265.137939,128.777634 262.257843,130.455368 258.745422,131.934692 
	C258.745422,128.911118 259.106689,126.082230 258.669800,123.382507 
	C257.776947,117.865578 257.070465,112.184753 255.111404,107.017204 
	C253.593811,103.014168 250.073334,103.184563 248.135544,107.116501 
	C246.319870,110.800575 244.486069,114.829712 244.156509,118.830254 
	C242.806747,135.215134 241.919708,151.642044 241.157349,168.067200 
	C241.041504,170.562637 242.026947,173.390869 243.298309,175.609406 
	C245.812454,179.996643 250.970078,179.866379 253.115097,175.272141 
	C254.626602,172.034790 255.389862,168.345749 255.911819,164.774277 
	C256.583923,160.175568 256.583191,155.482880 257.054626,150.849213 
	C257.468170,146.784576 260.316833,145.183929 263.984009,145.088120 
	C267.663116,144.991959 268.079376,147.877426 268.265900,150.637100 
	C268.534882,154.616653 268.607635,158.609970 268.903473,162.587067 
	C269.198120,166.547958 269.197510,170.617020 270.181152,174.417404 
	C271.270477,178.626083 275.495636,180.517700 278.192535,178.172668 
	C280.011841,176.590729 281.574249,173.840225 281.808746,171.469727 
	C282.560638,163.868835 282.641205,156.201508 282.973297,147.581879 
M343.135803,139.739166 
	C346.266998,138.241043 349.266998,136.216492 352.566620,135.394272 
	C355.805206,134.587265 358.285858,136.415741 359.111023,139.966522 
	C360.000549,143.794037 357.110901,143.351593 354.866333,144.379593 
	C348.611023,147.244553 342.140656,150.045502 336.679443,154.112747 
	C332.163788,157.475754 332.001251,163.148117 334.421722,168.306519 
	C336.814056,173.404877 340.444061,177.541351 346.593781,176.982422 
	C351.389923,176.546524 356.080170,174.945175 359.511780,174.160339 
	C362.960815,176.159302 365.837250,179.010849 368.987793,179.355316 
	C373.010956,179.795166 374.209869,175.479568 374.605377,172.259216 
	C376.245239,158.906891 375.804993,145.626923 370.653656,132.991241 
	C367.806335,126.007126 361.882416,122.596016 354.508209,122.258835 
	C347.366028,121.932266 340.745636,123.952621 336.639954,130.153625 
	C335.253845,132.247055 335.254333,135.889526 335.975922,138.440887 
	C336.269775,139.479889 340.167480,139.499649 343.135803,139.739166 
M173.003815,138.484665 
	C174.623566,137.639877 176.180695,136.632706 177.874359,135.979599 
	C183.889526,133.659988 187.391052,136.525986 186.733444,143.384476 
	C185.864899,143.590988 184.919312,143.804031 183.979813,144.041107 
	C176.997925,145.802963 170.224854,147.938019 164.993011,153.337555 
	C160.791748,157.673462 159.880219,162.653214 162.245789,168.027481 
	C164.590286,173.353912 168.351822,177.598007 174.725357,176.985031 
	C179.488953,176.526886 184.137100,174.868271 189.073532,173.687546 
	C190.273636,177.049438 192.492752,180.352341 197.124542,179.516281 
	C201.857834,178.661896 202.551788,174.254150 202.808975,170.545044 
	C203.245636,164.248093 203.559052,157.814728 202.743317,151.593536 
	C201.867828,144.916519 200.568375,137.987579 197.789246,131.932632 
	C192.251694,119.867760 172.415329,118.571854 164.991104,129.589035 
	C163.445465,131.882690 162.896072,136.282974 164.064194,138.628311 
	C165.748627,142.010330 169.489380,140.618118 173.003815,138.484665 
M433.356384,120.018936 
	C427.999664,119.757004 423.697693,121.930290 420.016785,125.673370 
	C409.866577,135.995087 407.933441,155.828339 416.033112,167.826019 
	C420.202972,174.002701 425.694153,178.201523 433.569214,176.876587 
	C441.582733,175.528336 447.782440,171.115097 450.957794,163.499557 
	C451.720306,161.670853 451.226013,158.089859 449.903900,156.960434 
	C448.540588,155.795837 445.310181,156.121399 443.177277,156.748856 
	C441.045898,157.375839 439.366302,159.390457 437.304169,160.431274 
	C432.930969,162.638519 429.117554,161.336411 427.397430,157.535355 
	C432.098236,155.216919 437.232391,153.513840 441.359161,150.452698 
	C447.364044,145.998398 449.962982,139.359268 448.451569,131.904343 
	C446.936401,124.430977 441.535339,120.907074 433.356384,120.018936 
M384.054901,163.601135 
	C377.827667,165.715958 375.432831,168.322449 376.335571,172.221893 
	C377.442719,177.004242 381.320709,177.637955 385.266815,177.670929 
	C393.819489,177.742401 403.274384,170.670776 406.533356,161.944046 
	C409.505615,153.985046 405.992065,148.746628 399.651001,144.156570 
	C395.380310,141.065201 395.791870,136.558044 400.055359,133.284637 
	C401.750977,131.982788 404.123993,131.435608 405.540710,129.933701 
	C406.985718,128.401779 408.719086,125.877937 408.351837,124.227768 
	C407.915344,122.266296 405.667877,119.921722 403.688904,119.238617 
	C398.001495,117.275391 388.263062,121.398102 384.229462,126.826508 
	C379.651978,132.986877 379.451935,139.529266 383.738983,146.222015 
	C385.082245,148.319077 386.638885,150.278931 388.083221,152.311981 
	C391.922577,157.716385 391.014893,160.713242 384.054901,163.601135 
M204.624359,168.408844 
	C203.629608,174.659729 206.107407,177.501968 212.731461,177.708344 
	C221.087128,177.968643 230.843719,171.070557 234.255585,162.359634 
	C237.404144,154.320969 234.116867,148.818817 227.523621,144.104782 
	C223.329453,141.106018 223.808014,136.314941 228.004639,133.241257 
	C229.868698,131.876007 232.126465,131.036041 233.943054,129.620743 
	C237.978256,126.476936 237.112305,121.058586 232.424240,119.313660 
	C227.153824,117.351982 216.949738,120.902824 212.654068,126.193314 
	C207.774704,132.202667 207.076096,139.063248 210.894547,145.085236 
	C212.582520,147.747330 214.605301,150.194778 216.363632,152.815140 
	C219.738403,157.844376 218.622559,160.922806 213.077896,163.240570 
	C210.250137,164.422623 207.676834,166.213470 204.624359,168.408844 
z"/>
<path fill="#807FEF" opacity="1.000000" stroke="none" 
	d="
M281.111786,211.923431 
	C281.111877,203.465652 281.111877,195.499390 281.111877,187.213684 
	C283.123535,187.213684 284.662384,187.213684 286.461487,187.213684 
	C286.461487,199.434906 286.461487,211.370071 286.461487,223.719528 
	C222.925598,223.719528 159.547562,223.719528 95.522141,223.719528 
	C95.522141,218.443619 95.522141,213.053574 95.522141,207.066315 
	C89.495377,207.066315 84.092743,207.066315 78.346840,207.066315 
	C78.346840,152.557693 78.346840,98.653732 78.346840,44.308075 
	C141.594620,44.308075 204.935165,44.308075 268.860168,44.308075 
	C268.860168,49.805004 268.860168,55.220238 268.860168,61.173752 
	C274.994110,61.173752 280.570984,61.173752 286.424866,61.173752 
	C286.424866,73.969444 286.424866,86.204597 286.424866,98.750824 
	C284.771179,98.831490 283.335358,98.901527 281.258423,99.002838 
	C281.258423,88.330338 281.258423,77.940872 281.258423,67.226936 
	C220.923264,67.226936 161.214935,67.226936 101.197281,67.226936 
	C101.197281,117.681267 101.197281,167.935623 101.197281,218.591248 
	C160.884979,218.591248 220.602768,218.591248 281.111694,218.591248 
	C281.111694,216.582077 281.111694,214.498505 281.111786,211.923431 
M167.500000,49.102036 
	C139.441879,49.102036 111.383751,49.102036 83.379707,49.102036 
	C83.379707,100.360909 83.379707,150.769302 83.379707,201.495010 
	C85.252747,201.585632 86.878700,201.722687 88.505447,201.732986 
	C95.741394,201.778763 95.742714,201.765640 95.742790,194.424881 
	C95.743217,152.285980 95.743004,110.147087 95.743011,68.008186 
	C95.743011,66.083145 95.743011,64.158112 95.743011,61.743015 
	C98.492218,61.743015 100.455482,61.743015 102.418755,61.743015 
	C153.884842,61.743011 205.350922,61.743122 256.817017,61.742340 
	C258.149445,61.742317 259.609344,62.070839 260.777863,61.630535 
	C261.911865,61.203228 263.473938,60.061626 263.579926,59.094719 
	C263.931885,55.882988 263.712952,52.608688 263.712952,49.102180 
	C231.439392,49.102180 199.969696,49.102180 167.500000,49.102036 
z"/>
<path fill="#7F7EEF" opacity="1.000000" stroke="none" 
	d="
M289.865540,149.998993 
	C289.909119,141.003372 289.895477,132.506622 290.014465,124.011726 
	C290.160370,113.598396 291.027313,112.095070 300.760956,108.725822 
	C305.089386,107.227547 309.782593,106.131844 314.332123,106.048355 
	C326.864532,105.818375 334.240723,115.470230 330.276978,127.427628 
	C328.525421,132.711548 324.558136,137.260971 321.533661,142.247910 
	C327.474487,144.736328 331.128296,150.129944 330.589691,157.746262 
	C329.990387,166.221451 325.162140,171.726913 317.426666,175.001953 
	C310.467590,177.948257 303.437866,178.807098 295.985474,177.206085 
	C292.553497,176.468796 291.177063,174.616119 291.000153,171.419373 
	C290.614258,164.446259 290.243866,157.472305 289.865540,149.998993 
M305.416412,132.409164 
	C305.688751,133.949768 305.961121,135.490372 306.328705,137.569580 
	C311.117950,135.515991 313.952148,132.535782 315.258850,128.225845 
	C316.373932,124.547981 314.276886,122.581467 310.509949,123.243126 
	C305.478973,124.126808 305.965942,128.117874 305.416412,132.409164 
M310.338043,160.210022 
	C311.543549,159.115631 313.251465,158.232361 313.823273,156.871689 
	C314.490051,155.284927 314.163910,153.280884 314.268646,151.457916 
	C312.237732,151.422653 309.064484,150.582184 308.406952,151.514999 
	C306.906677,153.643417 306.558289,156.624969 306.039551,159.317276 
	C306.002441,159.509888 308.383545,160.168427 310.338043,160.210022 
z"/>
<path fill="#7F7EEF" opacity="1.000000" stroke="none" 
	d="
M123.674988,174.295166 
	C114.189522,161.555573 114.513145,147.601974 117.638222,133.459839 
	C119.558876,124.768181 123.268410,116.777885 130.020172,110.532745 
	C141.156433,100.232056 155.481750,104.346817 158.506714,119.106949 
	C159.508789,123.996498 159.349457,129.354782 158.557083,134.312714 
	C157.846970,138.755920 154.237061,140.805664 149.502594,139.979980 
	C145.175262,139.225281 144.351929,136.125183 143.829514,132.348816 
	C143.465240,129.715744 142.493866,125.387047 141.013687,125.027573 
	C136.867905,124.020737 134.528763,127.854698 134.119766,131.261230 
	C133.079025,139.929245 132.176178,148.713715 132.477280,157.407959 
	C132.679245,163.239044 136.711594,165.161896 142.488327,163.798172 
	C145.235931,163.149551 147.907593,161.847977 150.665207,161.677856 
	C152.877319,161.541412 156.184891,161.970490 157.164413,163.405716 
	C158.383377,165.191788 158.497589,168.557663 157.703873,170.736847 
	C155.312836,177.301498 144.447693,183.207642 137.429123,181.281799 
	C132.670853,179.976151 128.408691,176.862518 123.674988,174.295166 
z"/>
<path fill="#7F7EEF" opacity="1.000000" stroke="none" 
	d="
M282.977081,148.070862 
	C282.641205,156.201508 282.560638,163.868835 281.808746,171.469727 
	C281.574249,173.840225 280.011841,176.590729 278.192535,178.172668 
	C275.495636,180.517700 271.270477,178.626083 270.181152,174.417404 
	C269.197510,170.617020 269.198120,166.547958 268.903473,162.587067 
	C268.607635,158.609970 268.534882,154.616653 268.265900,150.637100 
	C268.079376,147.877426 267.663116,144.991959 263.984009,145.088120 
	C260.316833,145.183929 257.468170,146.784576 257.054626,150.849213 
	C256.583191,155.482880 256.583923,160.175568 255.911819,164.774277 
	C255.389862,168.345749 254.626602,172.034790 253.115097,175.272141 
	C250.970078,179.866379 245.812454,179.996643 243.298309,175.609406 
	C242.026947,173.390869 241.041504,170.562637 241.157349,168.067200 
	C241.919708,151.642044 242.806747,135.215134 244.156509,118.830254 
	C244.486069,114.829712 246.319870,110.800575 248.135544,107.116501 
	C250.073334,103.184563 253.593811,103.014168 255.111404,107.017204 
	C257.070465,112.184753 257.776947,117.865578 258.669800,123.382507 
	C259.106689,126.082230 258.745422,128.911118 258.745422,131.934692 
	C262.257843,130.455368 265.137939,128.777634 268.242065,128.029358 
	C275.240814,126.342255 280.062592,129.254349 281.711060,136.210342 
	C282.583923,139.893707 282.580902,143.784653 282.977081,148.070862 
z"/>
<path fill="#7F7EEF" opacity="1.000000" stroke="none" 
	d="
M342.780640,139.861145 
	C340.167480,139.499649 336.269775,139.479889 335.975922,138.440887 
	C335.254333,135.889526 335.253845,132.247055 336.639954,130.153625 
	C340.745636,123.952621 347.366028,121.932266 354.508209,122.258835 
	C361.882416,122.596016 367.806335,126.007126 370.653656,132.991241 
	C375.804993,145.626923 376.245239,158.906891 374.605377,172.259216 
	C374.209869,175.479568 373.010956,179.795166 368.987793,179.355316 
	C365.837250,179.010849 362.960815,176.159302 359.511780,174.160339 
	C356.080170,174.945175 351.389923,176.546524 346.593781,176.982422 
	C340.444061,177.541351 336.814056,173.404877 334.421722,168.306519 
	C332.001251,163.148117 332.163788,157.475754 336.679443,154.112747 
	C342.140656,150.045502 348.611023,147.244553 354.866333,144.379593 
	C357.110901,143.351593 360.000549,143.794037 359.111023,139.966522 
	C358.285858,136.415741 355.805206,134.587265 352.566620,135.394272 
	C349.266998,136.216492 346.266998,138.241043 342.780640,139.861145 
M359.934326,154.952209 
	C355.972717,153.877930 349.822174,156.674957 349.265167,160.158905 
	C349.097504,161.207565 350.469574,163.380081 351.441925,163.584564 
	C356.181000,164.581116 360.159302,160.786438 359.934326,154.952209 
z"/>
<path fill="#7F7EEF" opacity="1.000000" stroke="none" 
	d="
M172.698654,138.704407 
	C169.489380,140.618118 165.748627,142.010330 164.064194,138.628311 
	C162.896072,136.282974 163.445465,131.882690 164.991104,129.589035 
	C172.415329,118.571854 192.251694,119.867760 197.789246,131.932632 
	C200.568375,137.987579 201.867828,144.916519 202.743317,151.593536 
	C203.559052,157.814728 203.245636,164.248093 202.808975,170.545044 
	C202.551788,174.254150 201.857834,178.661896 197.124542,179.516281 
	C192.492752,180.352341 190.273636,177.049438 189.073532,173.687546 
	C184.137100,174.868271 179.488953,176.526886 174.725357,176.985031 
	C168.351822,177.598007 164.590286,173.353912 162.245789,168.027481 
	C159.880219,162.653214 160.791748,157.673462 164.993011,153.337555 
	C170.224854,147.938019 176.997925,145.802963 183.979813,144.041107 
	C184.919312,143.804031 185.864899,143.590988 186.733444,143.384476 
	C187.391052,136.525986 183.889526,133.659988 177.874359,135.979599 
	C176.180695,136.632706 174.623566,137.639877 172.698654,138.704407 
M187.995346,159.920288 
	C187.995346,158.017197 187.995346,156.114105 187.995346,152.644440 
	C183.983231,154.899872 181.004379,156.225830 178.495743,158.161255 
	C177.531326,158.905304 177.637909,161.037506 177.256500,162.537216 
	C178.604248,162.817459 180.067566,163.570282 181.274628,163.275116 
	C183.481628,162.735489 185.537094,161.576126 187.995346,159.920288 
z"/>
<path fill="#7F7EEF" opacity="1.000000" stroke="none" 
	d="
M433.780457,120.037491 
	C441.535339,120.907074 446.936401,124.430977 448.451569,131.904343 
	C449.962982,139.359268 447.364044,145.998398 441.359161,150.452698 
	C437.232391,153.513840 432.098236,155.216919 427.397430,157.535355 
	C429.117554,161.336411 432.930969,162.638519 437.304169,160.431274 
	C439.366302,159.390457 441.045898,157.375839 443.177277,156.748856 
	C445.310181,156.121399 448.540588,155.795837 449.903900,156.960434 
	C451.226013,158.089859 451.720306,161.670853 450.957794,163.499557 
	C447.782440,171.115097 441.582733,175.528336 433.569214,176.876587 
	C425.694153,178.201523 420.202972,174.002701 416.033112,167.826019 
	C407.933441,155.828339 409.866577,135.995087 420.016785,125.673370 
	C423.697693,121.930290 427.999664,119.757004 433.780457,120.037491 
M426.589355,143.620193 
	C429.175293,142.639435 432.233887,142.198196 434.183167,140.490616 
	C435.510315,139.328033 435.285095,136.393295 435.753998,134.250992 
	C433.729828,134.385315 430.745911,133.743942 429.880463,134.814743 
	C428.055450,137.072845 427.339661,140.227448 426.589355,143.620193 
z"/>
<path fill="#7F7EEF" opacity="1.000000" stroke="none" 
	d="
M384.410980,163.448212 
	C391.014893,160.713242 391.922577,157.716385 388.083221,152.311981 
	C386.638885,150.278931 385.082245,148.319077 383.738983,146.222015 
	C379.451935,139.529266 379.651978,132.986877 384.229462,126.826508 
	C388.263062,121.398102 398.001495,117.275391 403.688904,119.238617 
	C405.667877,119.921722 407.915344,122.266296 408.351837,124.227768 
	C408.719086,125.877937 406.985718,128.401779 405.540710,129.933701 
	C404.123993,131.435608 401.750977,131.982788 400.055359,133.284637 
	C395.791870,136.558044 395.380310,141.065201 399.651001,144.156570 
	C405.992065,148.746628 409.505615,153.985046 406.533356,161.944046 
	C403.274384,170.670776 393.819489,177.742401 385.266815,177.670929 
	C381.320709,177.637955 377.442719,177.004242 376.335571,172.221893 
	C375.432831,168.322449 377.827667,165.715958 384.410980,163.448212 
z"/>
<path fill="#7F7EEF" opacity="1.000000" stroke="none" 
	d="
M204.806442,168.069000 
	C207.676834,166.213470 210.250137,164.422623 213.077896,163.240570 
	C218.622559,160.922806 219.738403,157.844376 216.363632,152.815140 
	C214.605301,150.194778 212.582520,147.747330 210.894547,145.085236 
	C207.076096,139.063248 207.774704,132.202667 212.654068,126.193314 
	C216.949738,120.902824 227.153824,117.351982 232.424240,119.313660 
	C237.112305,121.058586 237.978256,126.476936 233.943054,129.620743 
	C232.126465,131.036041 229.868698,131.876007 228.004639,133.241257 
	C223.808014,136.314941 223.329453,141.106018 227.523621,144.104782 
	C234.116867,148.818817 237.404144,154.320969 234.255585,162.359634 
	C230.843719,171.070557 221.087128,177.968643 212.731461,177.708344 
	C206.107407,177.501968 203.629608,174.659729 204.806442,168.069000 
z"/>
<path fill="#F7F7FE" opacity="1.000000" stroke="none" 
	d="
M168.000000,49.102108 
	C199.969696,49.102180 231.439392,49.102180 263.712952,49.102180 
	C263.712952,52.608688 263.931885,55.882988 263.579926,59.094719 
	C263.473938,60.061626 261.911865,61.203228 260.777863,61.630535 
	C259.609344,62.070839 258.149445,61.742317 256.817017,61.742340 
	C205.350922,61.743122 153.884842,61.743011 102.418755,61.743015 
	C100.455482,61.743015 98.492218,61.743015 95.743011,61.743015 
	C95.743011,64.158112 95.743011,66.083145 95.743011,68.008186 
	C95.743004,110.147087 95.743217,152.285980 95.742790,194.424881 
	C95.742714,201.765640 95.741394,201.778763 88.505447,201.732986 
	C86.878700,201.722687 85.252747,201.585632 83.379707,201.495010 
	C83.379707,150.769302 83.379707,100.360909 83.379707,49.102036 
	C111.383751,49.102036 139.441879,49.102036 168.000000,49.102108 
z"/>
<path fill="#FBFBFE" opacity="1.000000" stroke="none" 
	d="
M305.449310,132.014008 
	C305.965942,128.117874 305.478973,124.126808 310.509949,123.243126 
	C314.276886,122.581467 316.373932,124.547981 315.258850,128.225845 
	C313.952148,132.535782 311.117950,135.515991 306.328705,137.569580 
	C305.961121,135.490372 305.688751,133.949768 305.449310,132.014008 
z"/>
<path fill="#FBFBFF" opacity="1.000000" stroke="none" 
	d="
M309.989136,160.410156 
	C308.383545,160.168427 306.002441,159.509888 306.039551,159.317276 
	C306.558289,156.624969 306.906677,153.643417 308.406952,151.514999 
	C309.064484,150.582184 312.237732,151.422653 314.268616,151.457916 
	C314.163910,153.280884 314.490051,155.284927 313.823273,156.871689 
	C313.251465,158.232361 311.543549,159.115631 309.989136,160.410156 
z"/>
<path fill="#FAFAFE" opacity="1.000000" stroke="none" 
	d="
M360.002075,155.364029 
	C360.159302,160.786438 356.181000,164.581116 351.441925,163.584564 
	C350.469574,163.380081 349.097504,161.207565 349.265167,160.158905 
	C349.822174,156.674957 355.972717,153.877930 360.002075,155.364029 
z"/>
<path fill="#F9F9FE" opacity="1.000000" stroke="none" 
	d="
M187.825562,160.297760 
	C185.537094,161.576126 183.481628,162.735489 181.274628,163.275116 
	C180.067566,163.570282 178.604248,162.817459 177.256500,162.537216 
	C177.637909,161.037506 177.531326,158.905304 178.495743,158.161255 
	C181.004379,156.225830 183.983231,154.899872 187.995346,152.644440 
	C187.995346,156.114105 187.995346,158.017197 187.825562,160.297760 
z"/>
<path fill="#F7F7FE" opacity="1.000000" stroke="none" 
	d="
M426.379059,143.317200 
	C427.339661,140.227448 428.055450,137.072845 429.880463,134.814743 
	C430.745911,133.743942 433.729828,134.385315 435.754028,134.250977 
	C435.285095,136.393295 435.510315,139.328033 434.183167,140.490616 
	C432.233887,142.198196 429.175293,142.639435 426.379059,143.317200 
z"/>
</svg>